<mxfile host="app.diagrams.net" agent="Mozilla/5.0 (Windows NT 10.0; Win64; x64) AppleWebKit/537.36 (KHTML, like Gecko) Chrome/135.0.0.0 Safari/537.36" version="26.2.14">
  <diagram name="Page-1" id="9361dd3d-8414-5efd-6122-117bd74ce7a7">
    <mxGraphModel grid="1" page="0" gridSize="10" guides="1" tooltips="1" connect="1" arrows="1" fold="1" pageScale="1.5" pageWidth="826" pageHeight="1169" background="none" math="0" shadow="0">
      <root>
        <mxCell id="0" />
        <mxCell id="1" parent="0" />
        <mxCell id="69" value="" style="fillColor=#DEE8FF;strokeColor=none" vertex="1" parent="1">
          <mxGeometry x="10" y="10" width="930" height="560" as="geometry" />
        </mxCell>
        <mxCell id="2" value="" style="fillColor=#CC4125;strokeColor=#660000" vertex="1" parent="1">
          <mxGeometry x="200" y="150" width="10" height="130" as="geometry" />
        </mxCell>
        <mxCell id="3" value="press &quot;assign courier&quot; button" style="edgeStyle=none;verticalLabelPosition=top;verticalAlign=bottom;labelPosition=left;align=right;exitX=0.043;exitY=0.249;exitDx=0;exitDy=0;exitPerimeter=0;" edge="1" parent="1" source="69">
          <mxGeometry width="100" height="100" as="geometry">
            <mxPoint x="110" y="149.5" as="sourcePoint" />
            <mxPoint x="200" y="149.5" as="targetPoint" />
            <mxPoint x="65" y="1" as="offset" />
          </mxGeometry>
        </mxCell>
        <mxCell id="4" value="&lt;&lt;view&gt;&gt;&#xa;:RestaurantOrderManagementPage" style="shadow=1;fillColor=#A2C4C9;strokeColor=none" vertex="1" parent="1">
          <mxGeometry x="105" y="60" width="200" height="50" as="geometry" />
        </mxCell>
        <mxCell id="6" value="" style="fillColor=#CC4125;strokeColor=#660000" vertex="1" parent="1">
          <mxGeometry x="417.5" y="175" width="10" height="80" as="geometry" />
        </mxCell>
        <mxCell id="7" value="&lt;&lt;controller&gt;&gt;&#xa;:RestaurantController" style="shadow=1;fillColor=#A2C4C9;strokeColor=none" vertex="1" parent="1">
          <mxGeometry x="360" y="60" width="120" height="50" as="geometry" />
        </mxCell>
        <mxCell id="8" value="" style="edgeStyle=none;endArrow=none;dashed=1" edge="1" parent="1" source="7" target="6">
          <mxGeometry x="272.3350694444445" y="165" width="100" height="100" as="geometry">
            <mxPoint x="347.2588734567901" y="110" as="sourcePoint" />
            <mxPoint x="347.5761959876544" y="165" as="targetPoint" />
          </mxGeometry>
        </mxCell>
        <mxCell id="9" value="assignCourier(orderId, courierId)" style="edgeStyle=none;verticalLabelPosition=top;verticalAlign=bottom;entryX=0.059;entryY=0.086;entryDx=0;entryDy=0;entryPerimeter=0;" edge="1" parent="1" target="6">
          <mxGeometry width="100" height="100" as="geometry">
            <mxPoint x="210" y="179.5" as="sourcePoint" />
            <mxPoint x="410" y="183" as="targetPoint" />
            <mxPoint as="offset" />
          </mxGeometry>
        </mxCell>
        <mxCell id="15" value="&lt;&lt;controller&gt;&gt;&#xa;:OrderService" style="shadow=1;fillColor=#A2C4C9;strokeColor=none" vertex="1" parent="1">
          <mxGeometry x="500.00395061728386" y="59.99999999999997" width="105" height="50" as="geometry" />
        </mxCell>
        <mxCell id="16" value="" style="edgeStyle=none;endArrow=none" edge="1" parent="1" source="15" target="17">
          <mxGeometry x="437.042824074074" y="270" width="100" height="100" as="geometry">
            <mxPoint x="514.542824074074" y="219.99999999999997" as="sourcePoint" />
            <mxPoint x="514.542824074074" y="239.99999999999997" as="targetPoint" />
          </mxGeometry>
        </mxCell>
        <mxCell id="17" value="" style="fillColor=#CC4125;strokeColor=#660000" vertex="1" parent="1">
          <mxGeometry x="547.5" y="190" width="10" height="200" as="geometry" />
        </mxCell>
        <mxCell id="19" value="assignCourier&#xa;(orderId, courierId)" style="edgeStyle=elbowEdgeStyle;elbow=vertical;verticalLabelPosition=top;verticalAlign=bottom" edge="1" parent="1">
          <mxGeometry width="100" height="100" as="geometry">
            <mxPoint x="427.5" y="200" as="sourcePoint" />
            <mxPoint x="547.5039506172839" y="200" as="targetPoint" />
            <mxPoint as="offset" />
          </mxGeometry>
        </mxCell>
        <mxCell id="21" value="" style="fillColor=#CC4125;strokeColor=#660000" vertex="1" parent="1">
          <mxGeometry x="717.5" y="310" width="10" height="100" as="geometry" />
        </mxCell>
        <mxCell id="22" value="&lt;&lt;model&gt;&gt;&#xa;o:Order" style="shadow=1;fillColor=#A2C4C9;strokeColor=none" vertex="1" parent="1">
          <mxGeometry x="670" y="60" width="105" height="50" as="geometry" />
        </mxCell>
        <mxCell id="23" value="" style="edgeStyle=none;endArrow=none;dashed=1" edge="1" parent="1" source="22" target="21">
          <mxGeometry x="614.4878472222224" y="174.99999999999997" width="100" height="100" as="geometry">
            <mxPoint x="674.6527777777778" y="110" as="sourcePoint" />
            <mxPoint x="674.6527777777778" y="260" as="targetPoint" />
          </mxGeometry>
        </mxCell>
        <mxCell id="24" value="&lt;&lt;model&gt;&gt;&#xa;r:Restaurant" style="shadow=1;fillColor=#A2C4C9;strokeColor=none" vertex="1" parent="1">
          <mxGeometry x="797.5" y="60" width="105" height="50" as="geometry" />
        </mxCell>
        <mxCell id="25" value="" style="edgeStyle=none;endArrow=none;dashed=1" edge="1" parent="1" source="24" target="26">
          <mxGeometry x="727.3350694444446" y="165" width="100" height="100" as="geometry">
            <mxPoint x="802.2588734567901" y="110" as="sourcePoint" />
            <mxPoint x="802.5761959876544" y="165" as="targetPoint" />
          </mxGeometry>
        </mxCell>
        <mxCell id="26" value="" style="fillColor=#CC4125;strokeColor=#660000" vertex="1" parent="1">
          <mxGeometry x="845" y="310" width="10" height="100" as="geometry" />
        </mxCell>
        <mxCell id="33" value="" style="edgeStyle=elbowEdgeStyle;elbow=horizontal;endArrow=none;dashed=1" edge="1" parent="1" source="4" target="2">
          <mxGeometry x="230.00000000000003" y="310" width="100" height="100" as="geometry">
            <mxPoint x="230.00000000000003" y="410" as="sourcePoint" />
            <mxPoint x="330" y="310" as="targetPoint" />
          </mxGeometry>
        </mxCell>
        <mxCell id="42" value="" style="fillColor=#CC4125;strokeColor=#660000" vertex="1" parent="1">
          <mxGeometry x="200" y="280" width="10" height="220" as="geometry" />
        </mxCell>
        <mxCell id="43" value="" style="edgeStyle=elbowEdgeStyle;elbow=horizontal;dashed=0;verticalLabelPosition=top;verticalAlign=bottom;align=right;entryX=1.17;entryY=0.437;entryDx=0;entryDy=0;entryPerimeter=0;exitX=0.25;exitY=0.831;exitDx=0;exitDy=0;exitPerimeter=0;" edge="1" parent="1" source="48">
          <mxGeometry width="100" height="100" as="geometry">
            <mxPoint x="328.3" y="389.94" as="sourcePoint" />
            <mxPoint x="210.00000000000006" y="389.50395999999995" as="targetPoint" />
            <Array as="points">
              <mxPoint x="400" y="390" />
            </Array>
            <mxPoint x="32" y="1" as="offset" />
          </mxGeometry>
        </mxCell>
        <mxCell id="XGGz8LDohHsQUWhFFCO7-111" value="ResponseEntity&amp;lt;OrderDTO&amp;gt;" style="edgeLabel;html=1;align=center;verticalAlign=middle;resizable=0;points=[];" connectable="0" vertex="1" parent="43">
          <mxGeometry relative="1" as="geometry">
            <mxPoint x="5" y="1" as="offset" />
          </mxGeometry>
        </mxCell>
        <mxCell id="44" value="" style="edgeStyle=none;dashed=1;endArrow=none" edge="1" parent="1" source="2" target="42">
          <mxGeometry x="50" y="300" width="100" height="100" as="geometry">
            <mxPoint x="50" y="400" as="sourcePoint" />
            <mxPoint x="150" y="300" as="targetPoint" />
          </mxGeometry>
        </mxCell>
        <mxCell id="48" value="" style="fillColor=#CC4125;strokeColor=#660000" vertex="1" parent="1">
          <mxGeometry x="417.5" y="240" width="10" height="180" as="geometry" />
        </mxCell>
        <mxCell id="52" value="" style="edgeStyle=none;endArrow=none;dashed=1" edge="1" parent="1" source="6" target="48">
          <mxGeometry x="376.5711805555559" y="339.6971450617284" width="100" height="100" as="geometry">
            <mxPoint x="451.7361111111112" y="284.6971450617284" as="sourcePoint" />
            <mxPoint x="451.7361111111112" y="464.0914351851852" as="targetPoint" />
          </mxGeometry>
        </mxCell>
        <mxCell id="71" value="assign courier" style="rounded=1;fontStyle=1;fillColor=#FFD966;strokeColor=none" vertex="1" parent="1">
          <mxGeometry x="20" y="20" width="150" height="30" as="geometry" />
        </mxCell>
        <mxCell id="XGGz8LDohHsQUWhFFCO7-89" value="Restaurant" style="shape=umlActor;verticalLabelPosition=bottom;verticalAlign=top;html=1;outlineConnect=0;" vertex="1" parent="1">
          <mxGeometry x="50" y="244.39" width="30" height="60" as="geometry" />
        </mxCell>
        <mxCell id="XGGz8LDohHsQUWhFFCO7-91" value="loop" style="shape=umlFrame;whiteSpace=wrap;html=1;pointerEvents=0;width=43;height=20;" vertex="1" parent="1">
          <mxGeometry x="547.5" y="210" width="302.5" height="120" as="geometry" />
        </mxCell>
        <mxCell id="XGGz8LDohHsQUWhFFCO7-92" value="alt" style="shape=umlFrame;whiteSpace=wrap;html=1;pointerEvents=0;width=40;height=20;" vertex="1" parent="1">
          <mxGeometry x="580" y="240" width="270" height="80" as="geometry" />
        </mxCell>
        <mxCell id="XGGz8LDohHsQUWhFFCO7-94" value="[traverse all objects]" style="text;html=1;align=center;verticalAlign=middle;whiteSpace=wrap;rounded=0;" vertex="1" parent="1">
          <mxGeometry x="605" y="210" width="135" height="30" as="geometry" />
        </mxCell>
        <mxCell id="XGGz8LDohHsQUWhFFCO7-96" value="[if(o.rID==restaurantId) &amp;amp;&amp;amp; c.Id == courierId &amp;amp;&amp;amp; r.contains(order) &amp;amp;&amp;amp; o.status == READY_FOR_PICKUP]&amp;nbsp;" style="text;html=1;align=center;verticalAlign=middle;whiteSpace=wrap;rounded=0;" vertex="1" parent="1">
          <mxGeometry x="580" y="250" width="270" height="70" as="geometry" />
        </mxCell>
        <mxCell id="XGGz8LDohHsQUWhFFCO7-103" value="" style="edgeStyle=elbowEdgeStyle;elbow=vertical;dashed=0;verticalLabelPosition=top;verticalAlign=bottom;align=right;exitX=0.21;exitY=0.472;exitDx=0;exitDy=0;exitPerimeter=0;" edge="1" parent="1">
          <mxGeometry width="100" height="100" as="geometry">
            <mxPoint x="200" y="420.54" as="sourcePoint" />
            <mxPoint x="20" y="420" as="targetPoint" />
            <Array as="points" />
            <mxPoint x="32" y="1" as="offset" />
          </mxGeometry>
        </mxCell>
        <mxCell id="XGGz8LDohHsQUWhFFCO7-104" value="order{Id} has been&lt;div&gt;assigned to courier{Id}&lt;/div&gt;" style="edgeLabel;html=1;align=center;verticalAlign=middle;resizable=0;points=[];" connectable="0" vertex="1" parent="XGGz8LDohHsQUWhFFCO7-103">
          <mxGeometry relative="1" as="geometry">
            <mxPoint x="-2" y="-2" as="offset" />
          </mxGeometry>
        </mxCell>
        <mxCell id="XGGz8LDohHsQUWhFFCO7-105" style="edgeStyle=orthogonalEdgeStyle;rounded=0;orthogonalLoop=1;jettySize=auto;html=1;entryX=1.096;entryY=0.559;entryDx=0;entryDy=0;entryPerimeter=0;" edge="1" parent="1" source="17" target="48">
          <mxGeometry relative="1" as="geometry">
            <mxPoint x="450" y="330" as="targetPoint" />
            <Array as="points">
              <mxPoint x="429" y="340" />
            </Array>
          </mxGeometry>
        </mxCell>
        <mxCell id="XGGz8LDohHsQUWhFFCO7-110" value="return OrderDTO" style="edgeLabel;html=1;align=center;verticalAlign=middle;resizable=0;points=[];" connectable="0" vertex="1" parent="XGGz8LDohHsQUWhFFCO7-105">
          <mxGeometry x="-0.0635" y="-2" relative="1" as="geometry">
            <mxPoint x="-1" y="-3" as="offset" />
          </mxGeometry>
        </mxCell>
        <mxCell id="XGGz8LDohHsQUWhFFCO7-106" value="&lt;&lt;model&gt;&gt;&#xa;c:Courier" style="shadow=1;fillColor=#A2C4C9;strokeColor=none" vertex="1" parent="1">
          <mxGeometry x="730" y="140" width="105" height="50" as="geometry" />
        </mxCell>
        <mxCell id="XGGz8LDohHsQUWhFFCO7-109" style="edgeStyle=orthogonalEdgeStyle;rounded=0;orthogonalLoop=1;jettySize=auto;html=1;entryX=0.5;entryY=1;entryDx=0;entryDy=0;dashed=1;endArrow=none;startFill=0;" edge="1" parent="1" source="XGGz8LDohHsQUWhFFCO7-107" target="XGGz8LDohHsQUWhFFCO7-106">
          <mxGeometry relative="1" as="geometry" />
        </mxCell>
        <mxCell id="XGGz8LDohHsQUWhFFCO7-107" value="" style="fillColor=#CC4125;strokeColor=#660000" vertex="1" parent="1">
          <mxGeometry x="777.5" y="340" width="10" height="70" as="geometry" />
        </mxCell>
      </root>
    </mxGraphModel>
  </diagram>
</mxfile>
